<svg width="512" height="512" viewBox="0 0 512 512" fill="none" xmlns="http://www.w3.org/2000/svg">
<path d="M278.569 105.992C278.569 118.138 268.727 127.984 256.586 127.984C244.445 127.984 234.602 118.138 234.602 105.992C234.602 93.8462 244.445 84 256.586 84C268.727 84 278.569 93.8462 278.569 105.992Z" fill="white"/>
<path d="M321.827 333.008C321.827 345.154 311.985 355 299.844 355C287.703 355 277.86 345.154 277.86 333.008C277.86 320.862 287.703 311.016 299.844 311.016C311.985 311.016 321.827 320.862 321.827 333.008Z" fill="white"/>
<path fill-rule="evenodd" clip-rule="evenodd" d="M300.243 137.097L174.485 355H225.544L300.243 225.567L374.941 355H426L300.243 137.097Z" fill="white"/>
<path fill-rule="evenodd" clip-rule="evenodd" d="M213.116 136.472L238.777 180.935L138.32 355H87L213.116 136.472Z" fill="white"/>
<path d="M278.569 105.992C278.569 118.138 268.727 127.984 256.586 127.984C244.445 127.984 234.602 118.138 234.602 105.992C234.602 93.8462 244.445 84 256.586 84C268.727 84 278.569 93.8462 278.569 105.992Z" stroke="white"/>
<path d="M321.827 333.008C321.827 345.154 311.985 355 299.844 355C287.703 355 277.86 345.154 277.86 333.008C277.86 320.862 287.703 311.016 299.844 311.016C311.985 311.016 321.827 320.862 321.827 333.008Z" stroke="white"/>
<path fill-rule="evenodd" clip-rule="evenodd" d="M300.243 137.097L174.485 355H225.544L300.243 225.567L374.941 355H426L300.243 137.097Z" stroke="white"/>
<path fill-rule="evenodd" clip-rule="evenodd" d="M213.116 136.472L238.777 180.935L138.32 355H87L213.116 136.472Z" stroke="white"/>
</svg>
